<svg width="16" height="16" viewBox="0 0 16 16" fill="none" xmlns="http://www.w3.org/2000/svg">
<path fill-rule="evenodd" clip-rule="evenodd" d="M9.80651 11.6109C9.80651 11.7601 9.74725 11.9031 9.64176 12.0086C9.53627 12.1141 9.39319 12.1734 9.24401 12.1734C9.09482 12.1734 8.95175 12.1141 8.84626 12.0086C8.74077 11.9031 8.68151 11.7601 8.68151 11.6109V8.48212C8.68151 8.33293 8.74077 8.18986 8.84626 8.08437C8.95175 7.97888 9.09482 7.91962 9.24401 7.91962C9.39319 7.91962 9.53627 7.97888 9.64176 8.08437C9.74725 8.18986 9.80651 8.33293 9.80651 8.48212V11.6109ZM7.22338 11.6109C7.22338 11.7601 7.16412 11.9031 7.05863 12.0086C6.95314 12.1141 6.81007 12.1734 6.66088 12.1734C6.5117 12.1734 6.36863 12.1141 6.26314 12.0086C6.15765 11.9031 6.09838 11.7601 6.09838 11.6109V8.48212C6.09838 8.33293 6.15765 8.18986 6.26314 8.08437C6.36863 7.97888 6.5117 7.91962 6.66088 7.91962C6.81007 7.91962 6.95314 7.97888 7.05863 8.08437C7.16412 8.18986 7.22338 8.33293 7.22338 8.48212V11.6109ZM6.03338 3.56274C6.03338 3.39698 6.09923 3.23801 6.21644 3.1208C6.33365 3.00359 6.49262 2.93774 6.65838 2.93774H9.24838C9.59276 2.93774 9.87338 3.21774 9.87338 3.56274V4.15087H6.03338V3.56274ZM13.0771 4.15087H11.1234V3.56274C11.1234 2.52899 10.2828 1.68774 9.24838 1.68774H6.65838C5.62463 1.68774 4.78338 2.52899 4.78338 3.56274V4.15087H2.70276C2.50385 4.15087 2.31308 4.22989 2.17243 4.37054C2.03178 4.51119 1.95276 4.70196 1.95276 4.90087V5.27587C1.95276 5.47478 2.03178 5.66555 2.17243 5.8062C2.31308 5.94685 2.50385 6.02587 2.70276 6.02587H2.78463L3.07963 13.5484C3.09498 13.9357 3.25968 14.3021 3.5392 14.5706C3.81873 14.8392 4.19137 14.9891 4.57901 14.989H11.3265C11.714 14.9891 12.0865 14.8392 12.3659 14.5705C12.6452 14.3019 12.8096 13.9356 12.8246 13.5484L13.1209 6.01712C13.3111 6.00737 13.4904 5.92511 13.6219 5.78724C13.7534 5.64937 13.827 5.46638 13.8278 5.27587V4.90087C13.8278 4.48712 13.4915 4.15087 13.0771 4.15087Z" fill="#111111"/>
</svg>
